<svg xmlns="http://www.w3.org/2000/svg" width="129" height="129" viewBox="0 0 129 129">
    <g fill="none" fill-rule="evenodd">
        <circle cx="64.02" cy="64.02" r="64.02" fill="#000" fill-opacity=".4"/>
        <g fill-rule="nonzero" transform="translate(23.474 34.357)">
            <ellipse cx="60.769" cy="21.785" fill="#4482C3" rx="18.104" ry="18.138"/>
            <ellipse cx="40.009" cy="2.07" fill="#F3D55B" rx="1" ry="1"/>
            <ellipse cx="41.584" cy="39.925" fill="#F3D55B" rx="1" ry="1"/>
            <ellipse cx="54.57" cy="43.273" fill="#F3D55B" rx="1" ry="1"/>
            <ellipse cx="49.848" cy="24.151" fill="#F3D55B" rx="1" ry="1"/>
            <ellipse cx="73.684" cy=".789" fill="#F3D55B" rx="1" ry="1"/>
            <ellipse cx="80.84" cy="33.91" fill="#F3D55B" rx="1" ry="1"/>
            <path fill="#A4E869" d="M61.857 20.295c.14.071.261.172.358.294.55.805.233 1.985.777 2.274.432.23.677.694.492 1.146-.751 1.847-.102 3.962 1.647 5.412 1.23 1.02.206 3.386-.829 5.244a.83.83 0 0 0 1.006 1.177c1.132-.404 2.068-.989 3.152-1.923 1.572-1.354 1.912-2.83 3.471-3.98a.099.099 0 0 0 .038-.048c.399-1.169 1.636-3.723.386-4.374-1.165-.606-1.602-2.363-2.738-3.56a.835.835 0 0 0-.505-.229c-1.394-.18-2.023-1.243-2.959-.538-.703.538-1.493.206-1.738-.638-.08-.277-.22-.522-.727-.678a.716.716 0 0 1-.433-.933v-.016c.18-.506-.857-.429-1.387-.34-.149.024.358-.576.19-.478-.652.386-1.46-.28-1.432-1.036.028-.757.179-.732 1.493-.884 1.415-.66 2.1-.182 2.055 1.434.874.13 1.18-.258.916-1.162a.898.898 0 0 1 .152-.778c1.611-2.1 2.959-3.016 5.425-3.865a.81.81 0 0 0 .516-.977c-.396-1.454-1.01-3.748-2.057-3.913a1.022 1.022 0 0 1-.682-.538c-.368-.847-.615-1.203-1.312-1.41a.831.831 0 0 0-1.074.791c-.009 1.695 0 3.156-1.94 1.221-1.61-1.601-2.067-2.473-1.181-2.89-.042-.343 0 .016-.04-.327a17.985 17.985 0 0 0-10.489 1.92.122.122 0 0 0-.046.164c1.228 2.263 1.476 3.452 1.342 6.097a.898.898 0 0 0 .079.424c1.074 2.304 2.441 6.215 4.786 7.116 1.153.435 2.207.27 3.288.801z"/>
            <rect width="59.069" height="31.584" y="27.954" fill="#FFC73B" stroke="#FBB03B" stroke-width="1.796" rx="2.964"/>
            <path fill="#FFF" d="M13.554 41.657l-1.97 4.903c-.251.627-.564 1.066-.937 1.318-.41.263-.89.394-1.377.379-.274-.001-.547-.04-.81-.119a1.817 1.817 0 0 1-.645-.312l.659-1.363a1.297 1.297 0 0 0 .696.25.613.613 0 0 0 .496-.189L7.64 41.657h2.036l.991 2.576 1.01-2.576h1.876zM14.83 46.23a2.465 2.465 0 0 1-.995-.887 2.484 2.484 0 0 1 0-2.576c.243-.38.588-.686.995-.882a3.427 3.427 0 0 1 2.876 0c.407.195.75.5.992.882a2.515 2.515 0 0 1 0 2.576c-.242.382-.585.69-.992.887a3.386 3.386 0 0 1-2.876 0zm1.996-1.476c.156-.198.235-.447.22-.699a1.01 1.01 0 0 0-.22-.694.764.764 0 0 0-1.123 0 1.01 1.01 0 0 0-.22.694c-.015.252.063.501.22.7a.755.755 0 0 0 1.123 0zM24.92 41.657v4.806h-1.885v-.457c-.172.18-.382.32-.614.409a2.043 2.043 0 0 1-.746.136 1.967 1.967 0 0 1-1.465-.557c-.368-.372-.553-.933-.553-1.683v-2.654h1.984v2.312c-.021.245.034.49.157.703.11.145.285.224.465.211a.601.601 0 0 0 .484-.233c.146-.215.214-.474.193-.733v-2.26h1.98zM29.235 41.57v1.757a3.021 3.021 0 0 0-.438-.036c-.68 0-1.018.346-1.017 1.037v2.135h-1.983v-4.806h1.885v.519c.352-.405.87-.607 1.553-.607zM29.774 46.23a1.099 1.099 0 0 1-.33-.821c-.01-.305.11-.6.33-.812a1.251 1.251 0 0 1 1.658 0c.22.211.34.507.329.812.01.308-.11.606-.33.821a1.232 1.232 0 0 1-1.657 0zM33.494 46.236a2.441 2.441 0 0 1-1.008-.888 2.466 2.466 0 0 1 0-2.579 2.452 2.452 0 0 1 1.008-.882 3.272 3.272 0 0 1 1.46-.316 2.838 2.838 0 0 1 1.5.379c.401.235.706.605.86 1.045l-1.536.762c-.188-.422-.465-.633-.833-.633a.769.769 0 0 0-.583.246.971.971 0 0 0-.233.694.984.984 0 0 0 .233.703c.15.162.363.251.583.246.37 0 .646-.211.833-.633l1.535.755a1.96 1.96 0 0 1-.859 1.045 2.836 2.836 0 0 1-1.5.378 3.272 3.272 0 0 1-1.46-.322zM38.826 46.23a2.465 2.465 0 0 1-.995-.887 2.484 2.484 0 0 1 0-2.576c.243-.38.588-.686.995-.882a3.43 3.43 0 0 1 2.876 0c.407.195.75.5.992.882a2.515 2.515 0 0 1 0 2.576c-.242.382-.585.69-.992.887a3.386 3.386 0 0 1-2.876 0zm1.996-1.476c.156-.198.234-.447.218-.699a1.01 1.01 0 0 0-.218-.694.764.764 0 0 0-1.123 0 1.01 1.01 0 0 0-.218.694c-.016.252.062.501.218.7a.755.755 0 0 0 1.123 0zM51.413 42.106c.348.358.523.896.523 1.614v2.742h-1.984v-2.398c0-.551-.179-.827-.537-.827a.553.553 0 0 0-.45.212c-.133.196-.196.43-.18.667v2.346h-1.972v-2.398c0-.551-.18-.827-.537-.827a.553.553 0 0 0-.451.212c-.133.196-.196.43-.18.667v2.346h-1.97v-4.806h1.887v.448a1.84 1.84 0 0 1 1.358-.538 2.03 2.03 0 0 1 .868.18c.258.12.477.31.632.548.19-.23.43-.415.702-.538.281-.126.586-.19.895-.188.52-.025 1.027.17 1.396.538z"/>
            <path fill="#A7E4F9" d="M33.411 14.763c-.556 0-1.106.122-1.61.358a4.666 4.666 0 0 0-8.546 1.093 3.11 3.11 0 0 0-2.99 1.268 3.124 3.124 0 0 0-.236 3.244 3.112 3.112 0 0 0 2.773 1.69h10.61c2.109 0 3.82-1.713 3.82-3.826a3.823 3.823 0 0 0-3.82-3.827zM49.94 9.863a2.87 2.87 0 0 0-1.715-2.623 2.86 2.86 0 0 0-3.088.516 3.04 3.04 0 0 0-5.35 1.39h-.05c-.989 0-1.79.803-1.79 1.793 0 .99.801 1.794 1.79 1.794h7.518v-.01a2.867 2.867 0 0 0 2.685-2.86z"/>
            <path fill="#F3D55B" d="M81.248 39.168h-1.253l-1.896-1.903V36.01a.788.788 0 0 0-1.573 0v1.255l-1.9 1.905h-1.254a.787.787 0 0 0-.713 1.193c.149.25.423.397.713.383h1.253l1.901 1.905v1.255a.788.788 0 0 0 1.573 0v-1.255L80 40.746h1.253a.787.787 0 0 0 .714-1.193.787.787 0 0 0-.714-.383l-.005-.002zm-3.938 1.686a.896.896 0 1 1 .002 0h-.002z"/>
        </g>
    </g>
</svg>
