<svg xmlns="http://www.w3.org/2000/svg" width="129" height="129" viewBox="0 0 129 129">
    <g fill="none" fill-rule="evenodd" transform="translate(.333)">
        <circle cx="64.02" cy="64.02" r="64.02" fill="#000" fill-opacity=".4"/>
        <g fill-rule="nonzero" transform="translate(16.598 26.082)">
            <path fill="#D15242" d="M16.643 40.79l-1.951-5.858a1.177 1.177 0 0 1 .837-1.515l8.284-2.004a1.178 1.178 0 0 1 1.418.845l2.46 9.384-11.048-.852z"/>
            <path fill="#DA8542" d="M44.2 42.916v-6.13a.988.988 0 0 0-.958-.99l-18.793-.205a.982.982 0 0 0-.997.986V41.3L44.2 42.916z"/>
            <path fill="#F4C158" d="M19.14 63.745l26.714-3.611a1.555 1.555 0 0 0 1.348-1.543v-14c0-.814-.625-1.491-1.434-1.553l-33.29-2.561 6.663 23.268z"/>
            <ellipse cx="39.438" cy="48.653" fill="#232120" rx="1" ry="1.588"/>
            <ellipse cx="25.695" cy="48.653" fill="#232120" rx="1" ry="1.588"/>
            <path fill="#162948" d="M47.202 69.626H18.959l-.173-.051c-1.047-.32-2.82-1.421-2.82-3.554a3.443 3.443 0 0 1 1.706-2.951c-2.418-8.536-6.63-23.371-6.995-24.425l-.09-.275c-.45-1.341-.6-1.556-.855-1.556H6.327a1.229 1.229 0 0 1-1.117-.597 1.235 1.235 0 0 1 0-1.268c.234-.39.663-.62 1.117-.597h3.405c2.098 0 2.724 1.87 3.194 3.237l.089.266c.492 1.447 7.026 24.571 7.317 25.557l.348 1.22-1.23.32c-.092.026-1.015.304-1.015 1.085 0 .666.639 1.022.936 1.146h27.844c.677 0 1.226.55 1.226 1.23 0 .679-.549 1.23-1.226 1.23l-.013-.017z"/>
            <rect width="8.758" height="3.518" y="34.048" fill="#E56354" rx=".572"/>
            <path fill="#162948" d="M44.2 75.706a3.422 3.422 0 0 1-3.418-3.426 3.422 3.422 0 0 1 3.418-3.425 3.422 3.422 0 0 1 3.417 3.425 3.425 3.425 0 0 1-3.417 3.426zm0-4.39a.96.96 0 0 0-.958.961.96.96 0 1 0 .958-.96zM19.885 75.706a3.422 3.422 0 0 1-3.405-3.434 3.421 3.421 0 0 1 3.422-3.417 3.422 3.422 0 0 1 3.413 3.425c0 .91-.363 1.784-1.006 2.426a3.416 3.416 0 0 1-2.424 1zm0-4.39a.96.96 0 0 0-.958.961.96.96 0 1 0 .958-.96z"/>
            <path fill="#232120" d="M36.982 56.385a.82.82 0 0 1-.76-.512 3.947 3.947 0 0 0-3.62-2.325c-2.484 0-3.04 1.982-3.097 2.206a.82.82 0 1 1-1.597-.371c.275-1.2 1.597-3.474 4.692-3.474a5.582 5.582 0 0 1 5.139 3.352.82.82 0 0 1-.757 1.124z"/>
            <path fill="#D4AB88" d="M73.44 12.838a7.358 7.358 0 0 0 2.657 3.093c-.374 1.668-1.227 3.448-.78 5.737.767 3.915 6.069 2.058 5.309-1.85a7.015 7.015 0 0 1-.09-2.616c1.09.168 2.188.275 3.29.32 3.986.18 4.9-6.637 3.925-11.119-.974-4.482-7.164-6.121-10.958-4.348-3.794 1.774-5.295 6.59-3.354 10.783"/>
            <path fill="#953C22" d="M72.453 3.906c-2.39 3.173-1.374 7.767.198 10.453 1.57 2.686 2.376 2.314 2.376 2.314s4.232-.112 3.583-3.909c-.204-1.2-1.673-1.498-.69-3.585.64-1.345 2.805-1.313 3.223.288.418 1.6 1.153 1.088 1.153 1.088l1.322-4.853a3.845 3.845 0 0 1 3.676.96c1.029 1.012 2.744-3.7-2.711-5.442-6.244-1.992-9.729-.512-12.137 2.683"/>
            <path fill="#CB9A7A" d="M66.895 44.334a2.094 2.094 0 0 1-2.092-2.097c0-11.22 10.62-21.997 11.073-22.452a2.089 2.089 0 0 1 2.96-.001c.817.818.818 2.146.001 2.966-.099.1-9.85 10.011-9.85 19.487a2.1 2.1 0 0 1-.613 1.483 2.09 2.09 0 0 1-1.479.614"/>
            <path fill="#2B6897" d="M83.631 73.692a4.192 4.192 0 0 1-4.184-4.194V55.933l-7.815-13.712a4.203 4.203 0 0 1-.044-4.247 4.182 4.182 0 0 1 3.678-2.107 4.183 4.183 0 0 1 3.629 2.192l8.367 14.68c.362.633.552 1.35.553 2.08V69.5a4.192 4.192 0 0 1-4.184 4.193"/>
            <path fill="#4088C1" d="M64.8 67.401a4.183 4.183 0 0 1-3.768-2.378 4.202 4.202 0 0 1 .504-4.435l7.732-9.684 1.891-9.486a4.184 4.184 0 0 1 4.917-3.257 4.194 4.194 0 0 1 3.288 4.902l-2.092 10.485a4.147 4.147 0 0 1-.837 1.796L68.067 65.83a4.167 4.167 0 0 1-3.267 1.575"/>
            <path fill="#77B253" d="M68.987 35.946c2.092-10.484 2.092-18.872 8.368-18.872 4.935 0 8.368 12.581 4.184 25.163h-8.368c-4.184 0-4.184-2.097-4.184-2.097"/>
            <path fill="#D4AB88" d="M75.263 25.468c0 .47.106 11.612 9.205 18.453l.019-.028c.352.28.786.438 1.236.448a2.09 2.09 0 0 0 1.484-.603 2.1 2.1 0 0 0 .624-1.478 2.06 2.06 0 0 0-.86-1.649l.023-.029c-7.394-5.558-7.531-15.008-7.531-15.104l-4.2-.01z"/>
            <path fill="#292F33" d="M58.147 65.426l8.924 8.922c.378.358.934.45 1.407.233a1.28 1.28 0 0 0 .746-1.219c-.11-1.95-3.102-7.54-7.027-11.448-.537-.538-1.83 0-2.363.336 0 0-.438.32-1.409 1.204-.604.554-.837 1.402-.268 1.972M79.623 75.607l12.593-.09a1.283 1.283 0 0 0 .811-2.241c-1.46-1.28-7.534-3.08-13.06-3.032-.763 0-1.296 1.297-1.42 1.921 0 0-.084.535-.135 1.847-.032.823.41 1.601 1.21 1.582"/>
        </g>
    </g>
</svg>
