<svg xmlns="http://www.w3.org/2000/svg" xmlns:xlink="http://www.w3.org/1999/xlink" width="712" height="53" viewBox="0 0 712 53">
    <defs>
        <path id="a" d="M.068 2.213C.068 1.076.946.308 1.942.308c.996 0 1.873.768 1.873 1.905 0 1.138-.877 1.906-1.873 1.906S.068 3.351.068 2.213zm1.883-.215c.32 0 .41-.175.41-.328 0-.184-.09-.327-.41-.327h-.407v.655h.407zm-.407.296V3.34h-.329V1.035h.816c.478 0 .698.215.698.635 0 .257-.17.462-.388.492v.01c.188.03.258.206.298.523.03.204.07.563.14.645H2.39c-.09-.215-.08-.522-.15-.778-.058-.195-.158-.268-.377-.268h-.319zm1.912-.08c0-.923-.637-1.599-1.514-1.599S.427 1.291.427 2.213s.638 1.598 1.515 1.598c.877 0 1.514-.676 1.514-1.598z"/>
        <path id="c" d="M9.702 10.582L7.542 8.09l-2.14 2.49h-4.5l4.4-5.085L.901.41h4.641l2.18 2.471L9.824.41h4.482l-4.38 5.066 4.439 5.106z"/>
        <path id="e" d="M.788 16.406V.383h8.649v3.572H4.452v2.279h4.985V9.67H4.452v3.154h4.985v3.58z"/>
        <path id="g" d="M25.277 13.966c-1.345 0-2.181-1.288-2.181-2.634 0-1.437.728-2.82 2.18-2.82 1.508 0 2.109 1.383 2.109 2.82 0 1.364-.637 2.634-2.108 2.634zM12.313 9.718c.23-1.017.998-1.683 1.956-1.683 1.055 0 1.783.646 1.975 1.683h-3.931zM27.491.383V6.94h-.04c-.808-.954-1.817-1.287-2.987-1.287-2.4 0-4.206 1.678-4.84 3.895-.724-2.443-2.589-3.94-5.355-3.94-2.246 0-4.02 1.036-4.946 2.726v-2.1H4.681v-2.28h5.066V.383H.542v16.023H4.68V9.67h4.125a6.544 6.544 0 0 0-.19 1.584c0 3.342 2.484 5.688 5.653 5.688 2.665 0 4.421-1.287 5.35-3.632h-3.547c-.48.705-.844.914-1.803.914-1.112 0-2.071-.997-2.071-2.181h7.222c.314 2.655 2.325 4.945 5.083 4.945 1.19 0 2.282-.603 2.948-1.62h.04v1.038h3.648V.383h-3.648z"/>
        <path id="i" d="M3.044 5.64c.47 0 .84-.07 1.204-.198V3.579H2.882v-.428h1.874v2.601c-.586.19-1.04.317-1.727.317-1.697 0-2.63-1.348-2.63-2.965C.4 1.485 1.132.138 2.828.138c.918 0 1.658.5 1.858 1.38h-.555C4.016.906 3.407.565 2.844.565 1.447.566.932 1.874.932 3.104c0 1.23.716 2.537 2.112 2.537z"/>
        <path id="k" d="M1.6 1.363c-.778 0-1.048.674-1.048 1.372v2.268h-.47v-2.83c0-.39-.008-.786-.023-1.182H.52l.032.578c.23-.46.616-.673 1.133-.673.07 0 .147.008.216.015v.485c-.108-.017-.193-.033-.3-.033z"/>
        <path id="m" d="M2.013 4.733c.932 0 1.326-.871 1.326-1.736 0-.864-.394-1.737-1.326-1.737-.934 0-1.327.873-1.327 1.737 0 .865.393 1.736 1.327 1.736zm0 .364c-1.188 0-1.827-.942-1.827-2.1C.186 1.84.825.895 2.013.895c1.186 0 1.827.945 1.827 2.102 0 1.158-.64 2.1-1.827 2.1z"/>
        <path id="o" d="M2.697 4.033l-.015-.603c-.27.467-.694.697-1.264.697-1.041 0-1.389-.586-1.389-1.594V.02H.5v2.324c0 .745.17 1.38.995 1.38.88 0 1.173-.801 1.173-1.595V.02h.471v2.814c0 .398.007.802.023 1.2h-.464z"/>
        <path id="q" d="M.865.991l.015.603c.27-.468.694-.699 1.265-.699 1.04 0 1.387.588 1.387 1.594v2.515h-.47V2.68c0-.745-.17-1.38-.994-1.38-.88 0-1.172.802-1.172 1.594v2.11H.425V2.188c0-.397-.007-.8-.023-1.197h.463z"/>
        <path id="s" d="M1.17 3.967c0 .858.347 1.698 1.272 1.698.872 0 1.187-.738 1.187-1.698 0-.958-.315-1.697-1.187-1.697-.925 0-1.272.841-1.272 1.697zM3.63.233h.47v4.543c0 .397 0 .802.023 1.199H3.66l-.014-.604c-.294.475-.68.698-1.257.698-1.203 0-1.72-1.022-1.72-2.102 0-1.077.517-2.101 1.72-2.101.538 0 .963.214 1.24.674V.233z"/>
        <path id="u" d="M5.565.187L7.804 2.63 9.958.187h4.6l-4.495 5.01 4.558 5.05H9.834L7.617 7.784l-2.196 2.463H.799l4.518-5.03L.799.187z"/>
        <path id="w" d="M9.136 6.157v3.34H4.268v3.065h4.868v3.479H.692V.473h8.444v3.47H4.268v2.214z"/>
        <path id="y" d="M27.273.481v6.485h-.04c-.815-.944-1.83-1.272-3.009-1.272-2.415 0-4.234 1.659-4.872 3.85-.729-2.415-2.607-3.896-5.392-3.896-2.261 0-4.047 1.026-4.979 2.696V6.268H4.307V4.013h5.101V.481H.14v15.847h4.167V9.667H8.46a6.375 6.375 0 0 0-.19 1.566c0 3.305 2.5 5.626 5.69 5.626 2.683 0 4.452-1.273 5.386-3.592h-3.571c-.483.697-.85.904-1.815.904-1.12 0-2.085-.987-2.085-2.157h7.271c.316 2.626 2.34 4.89 5.119 4.89a3.55 3.55 0 0 0 2.966-1.6h.041v1.025h3.673V.481h-3.672zM11.992 9.714c.231-1.007 1.004-1.664 1.97-1.664 1.061 0 1.795.637 1.988 1.664h-3.958zm13.051 4.201c-1.354 0-2.196-1.274-2.196-2.605 0-1.422.732-2.79 2.196-2.79 1.518 0 2.122 1.368 2.122 2.79 0 1.348-.64 2.605-2.122 2.605z"/>
        <path id="A" d="M.762 5.723V.315h3.313v.403H1.308v1.995h2.65v.403h-2.65v2.203h2.89v.403H.763z"/>
        <path id="C" d="M.946 4.557L2.63 2.38 1.034.323h.647l1.303 1.682L4.26.323h.647L3.285 2.381l1.691 2.176h-.655l-1.399-1.8-1.328 1.8z"/>
        <path id="E" d="M1.145 5.487H.671v-4.07c0-.373 0-.754-.023-1.128h.466l.016.568C1.424.408 1.812.2 2.395.2c1.211 0 1.73.963 1.73 1.978 0 1.017-.519 1.98-1.73 1.98-.544 0-.97-.201-1.25-.635v1.964zm2.477-3.309c0-.806-.35-1.598-1.281-1.598-.878 0-1.196.695-1.196 1.598 0 .904.318 1.598 1.196 1.598.931 0 1.28-.79 1.28-1.598zM6.562.64c-.785 0-1.058.636-1.058 1.292V4.07H5.03V1.4c0-.366-.007-.738-.023-1.112h.468l.03.545C5.738.402 6.127.2 6.647.2c.07 0 .147.007.217.015V.67C6.755.654 6.67.639 6.561.639zm.882 1.621c0 .851.419 1.553 1.28 1.553.668 0 .979-.425 1.095-.85h.45c-.21.79-.715 1.195-1.607 1.195-1.196 0-1.724-.852-1.724-1.912C6.938 1.163 7.489.2 8.724.2c1.25 0 1.584 1.052 1.584 2.06H7.444zm.015-.343h2.345c0-.74-.365-1.374-1.11-1.374-.676 0-1.142.492-1.235 1.374zm4.698 2.241c-.807 0-1.412-.367-1.412-1.196h.474c0 .568.387.851.962.851.536 0 .955-.246.955-.753 0-.456-.489-.576-1.001-.717-.62-.172-1.297-.36-1.297-1.09 0-.814.707-1.053 1.367-1.053.76 0 1.327.283 1.35 1.067h-.474c-.023-.448-.356-.701-.861-.701-.396 0-.877.149-.877.641 0 .45.48.576.993.71.622.164 1.305.343 1.305 1.076 0 .85-.683 1.165-1.484 1.165zm3.284 0c-.807 0-1.412-.367-1.412-1.196h.473c0 .568.388.851.964.851.536 0 .954-.246.954-.753 0-.456-.49-.576-1.001-.717-.621-.172-1.296-.36-1.296-1.09 0-.814.706-1.053 1.366-1.053.76 0 1.328.283 1.35 1.067h-.473c-.023-.448-.357-.701-.862-.701-.396 0-.877.149-.877.641 0 .45.481.576.994.71.622.164 1.305.343 1.305 1.076-.002.85-.685 1.165-1.485 1.165z"/>
        <path id="G" d="M.007 30.875c.296-1.263.612-2.522.884-3.79C2.109 21.4 3.309 15.71 4.54 10.028c.082-.308.271-.577.533-.76 5.46-3.612 11.255-6.562 17.442-8.715.368-.116.76-.13 1.135-.039 2.521.62 4.877 1.586 6.78 3.439 1.91 1.86 2.87 4.19 3.211 6.776.54 4.08-.09 7.966-2.127 11.582-.05.09-.105.179-.16.266-.022.034-.052.062-.157.185l-.24-1.87c-1.174 0-2.328-.009-3.482.013a.47.47 0 0 0-.343.285c-.376 1.732-.73 3.47-1.111 5.309.62 0 1.14.057 1.633-.03.189-.033.409-.376.463-.612.322-1.41.599-2.832.979-4.26l.568 3.29.156.059 1.311-1.75.198 1.485.131.025c.478-.955 1.006-1.888 1.417-2.87.3-.719.718-1.04 1.493-.908.28.047.574.007.913.007l-.588 1.4-.15.12c-.697 1.144-1.39 2.291-2.097 3.43-.114.185-.274.458-.436.476-.63.068-1.287.13-1.899.012-.178-.034-.241-.67-.359-1.029-.018-.055-.046-.106-.083-.19-.073.041-.141.09-.205.145-3.01 3.24-6.827 4.828-11.117 5.45-.892.128-1.784.25-2.676.375-5.078 0-10.156-.003-15.234-.009-.151 0-.494.2-.433-.24zm21.114-12.199c-.092 1.8-.87 3.393-.752 5.153.057.85-.312 1.728-.506 2.685.533 0 .984-.012 1.434.004.385.014.551-.165.621-.533.147-.772.32-1.54.495-2.306.139-.61.483-1.054 1.11-1.214.57-.145.985.196.94.787-.04.328-.1.654-.18.975l-.45 2.282c.594 0 1.072.04 1.537-.02.191-.024.473-.236.512-.409.24-1.068.512-2.142.603-3.228.122-1.45-.996-2.265-2.398-1.86-.098.027-.2.042-.3.062.078-.23.245-.328.365-.466 1.655-1.898 2.881-3.994 3.004-6.59.165-3.464-1.587-5.879-4.92-6.83-1.908-.543-3.763-.359-5.597.32-3.297 1.222-5.6 3.556-7.216 6.595-1.157 2.176-1.97 4.47-1.742 7.009.21 2.335 2.008 4 4.9 3.97 0-.51-.048-1.023.008-1.525.182-1.646 1.5-2.65 3.362-2.601 1.48.039 2.097.76 2.224 2.601.001.018.018.034.062.11.036-.135.065-.228.085-.323.289-1.334.572-2.668.866-4 .063-.289.047-.655.505-.65.452.007.904.002 1.428.002zm-8.258 6.47l-.13.216c.433.311.827.773 1.308.897.698.18 1.463.187 2.19.14.986-.064 1.156-.348 1.037-1.422-.376.1-.757.18-1.14.24-.375.024-.75.027-1.125.01l.007-.13 2.817-.674-.036-.155h-3.559l.204.8-1.573.077zm4.78 1.36c.596 0 1.11.018 1.62-.012.133-.009.344-.148.372-.263.217-.889.399-1.787.62-2.814-.773.31-1.386.545-1.986.81a.52.52 0 0 0-.23.331c-.137.6-.248 1.207-.396 1.948zm9.822-6.536c1.734.276 2.13.023 2.064-1.288-1.92-.153-1.98-.227-2.064 1.288zm-10.79 3.201c-.03-.647-.247-1.03-.867-1.066-.713-.04-1.215.336-1.374 1.066h2.24z"/>
        <path id="I" d="M46.824 21.04c-.508.825-1.024 1.645-1.523 2.474-.738 1.225-1.441 2.47-2.2 3.681-.891 1.421-2.097 1.848-3.84 1.391.09-.413.178-.829.278-1.294.352 0 .681.015 1.009-.003.803-.045 1.228-.534 1.074-1.322a67.007 67.007 0 0 0-.746-3.267c-.034-.135-.221-.325-.343-.33a7.395 7.395 0 0 0-1.547.061c-.746.134-1.082.716-1.242 1.4a41.458 41.458 0 0 0-.411 2.006c-.079.432-.276.662-.75.627-.407-.03-.819-.007-1.307-.007l.464-2.26h-3.893c.07.777.41 1.09 1.23 1.086.57-.003 1.138-.129 1.707-.2.134.88-.031 1.16-.856 1.261a7.09 7.09 0 0 1-1.664.037c-1.575-.184-2.389-1.332-2.105-2.896.063-.345.149-.685.225-1.029l.15-.122c.791-1.145 1.923-1.514 3.248-1.383 1.195.119 1.898.898 1.954 2.104-.003.195.04.387.127.561.137-.678.32-1.352.395-2.037.059-.543.289-.708.799-.65.348.02.698.023 1.047.006l-.095.97c.19-.137.328-.22.447-.324a2.525 2.525 0 0 1 1.825-.647c.31.01.62.001.931.001 1.217 0 1.21.001 1.365 1.24.076.696.218 1.383.425 2.052l.711-1.245a.954.954 0 0 0 .088-.164c.486-1.466 1.399-2.25 3.023-1.902v.124zm-12.633 2.131c.003-.717-.223-1.015-.773-1.065-.723-.066-1.282.347-1.41 1.065h2.183zM15.616 0C12.203 1.99 8.773 3.952 5.384 5.984 3.773 6.95 2.24 8.049.571 9.155c.234-1.115.444-2.134.662-3.151.372-1.74.742-3.48 1.13-5.217.062-.273.212-.525.322-.787h12.93zm-2.134 26.506c.147-.74.259-1.347.395-1.948a.52.52 0 0 1 .231-.332c.6-.264 1.213-.498 1.985-.809-.22 1.027-.402 1.925-.62 2.814-.027.115-.238.255-.371.263-.51.03-1.024.012-1.62.012zm9.822-6.536c.084-1.515.144-1.441 2.063-1.288.066 1.311-.329 1.564-2.063 1.288zm-4.043-1.264c-.213 1.027-.365 2.022-.65 2.978-.087.29-.527.492-.83.698-.389.263-.801.49-1.332.81.249-1.186.445-2.234.69-3.27.345-1.46-.027-1.226 1.555-1.248.16-.002.321.018.567.032z"/>
        <path id="K" d="M0 2.584L.76.004h3.754a2.491 2.491 0 0 1 1.868.687c.469.516.711 1.206.67 1.91a2.43 2.43 0 0 1-.32 1.298c-.203.337-.528.58-.905.673.472.096.894.365 1.185.757.28.444.417.968.39 1.496a2.591 2.591 0 0 1-.735 2.003 3.089 3.089 0 0 1-2.162.677H.76V2.584H0zm3.407-.332v1.353h.37a.722.722 0 0 0 .524-.174.674.674 0 0 0 .18-.506.662.662 0 0 0-.18-.501.732.732 0 0 0-.524-.172h-.37zm0 3.396v1.507h.472a.917.917 0 0 0 .63-.196.817.817 0 0 0 0-1.117.928.928 0 0 0-.63-.194h-.472z"/>
        <path id="M" d="M.735 0H3.45v6.93h2.106L4.83 9.511H.735v-6.93H0L.732 0z"/>
        <path id="O" d="M0 2.515L.755 0H3.53v5.054c-.03.412.03.826.176 1.213a.708.708 0 0 0 1.205-.01c.148-.383.21-.794.181-1.203V0h2.778v5.028c.007.544-.029 1.088-.109 1.626a3.386 3.386 0 0 1-.346 1.069 3.286 3.286 0 0 1-1.27 1.328 3.894 3.894 0 0 1-3.678 0A3.286 3.286 0 0 1 .86 6.667a10.26 10.26 0 0 1-.106-1.639V2.515H0z"/>
        <path id="Q" d="M0 2.583L.757 0h5.198l-.744 2.583H3.484v.92h2.241l-.713 2.43H3.484v.998H6.02l-.752 2.582H.751v-6.93z"/>
        <path id="S" d="M.761 0h2.295c.63-.007 1.258.042 1.88.147.445.071.875.224 1.266.452a4.356 4.356 0 0 1 1.58 1.721c.378.757.567 1.595.552 2.442a5.24 5.24 0 0 1-.548 2.43 4.382 4.382 0 0 1-1.584 1.721c-.395.23-.829.384-1.28.455-.686.108-1.381.156-2.077.143H.761V2.583H0L.76.005.76.001zm2.811 6.597a1.978 1.978 0 0 0 1.425-.451c.33-.384.493-.887.45-1.393a1.95 1.95 0 0 0-.43-1.383 1.736 1.736 0 0 0-1.319-.455h-.126v3.682z"/>
        <path id="U" d="M2.063 2.583L0 9.513h3.066L3.31 8.31h2.157l.256 1.203h3.075L6.016 0h-3.95l-.77 2.583z"/>
        <path id="W" d="M0 3.33h1.39l-.286-1.133A18.864 18.864 0 0 1 .818.873C.77.583.738.293.723 0H.666A7.626 7.626 0 0 1 .57.873c-.051.31-.146.75-.285 1.324L0 3.329z"/>
        <path id="Y" d="M.743.008h3.461a3.056 3.056 0 0 1 2.307.826 3.3 3.3 0 0 1 .797 2.381 3.17 3.17 0 0 1-.4 1.672c-.232.413-.63.695-1.084.768l2.048 3.858h-3.09L3.437 6.386v3.127H.743v-6.92L.74 2.587H0L.742.008zM3.438 2.46v1.865h.43a.77.77 0 0 0 .606-.238.994.994 0 0 0 .213-.682 1.04 1.04 0 0 0-.213-.7.76.76 0 0 0-.606-.245h-.43z"/>
        <path id="aa" d="M1.634 9.513v-6.93H0L.766 0h5.716l-.775 2.583h-1.23v6.93z"/>
        <path id="ac" d="M6.076 7.135L0 14.27l14.354-7.134L0 0z"/>
        <path id="ae" d="M1.87 5.233L0 10.464l4.63-5.231L0 0z"/>
        <path id="ag" d="M0 0h56.481c1.523.655 2.935 1.575 4.097 2.74.648.674 1.226 1.44 1.522 2.325.298.932.207 1.942-.076 2.867-.434 1.356-1.241 2.568-2.161 3.658-1.765 2.115-3.958 3.83-6.1 5.565.744.004 1.489.022 2.232.004.328-.016.658.014.985-.014.278-.142.511-.355.773-.523 2.167-1.507 4.337-3.045 6.16-4.948.828-.873 1.587-1.822 2.143-2.883.502-.943.81-1.992.803-3.06.267.775.305 1.616.117 2.411-.28 1.196-.951 2.265-1.728 3.215-1.899 2.285-4.356 4.032-6.742 5.799 6.582-.001 13.164-.002 19.747 0v.044H0V0z"/>
        <path id="ai" d="M2.63 0h3.607c.164.142.377.192.573.272.289.119.585.22.864.363l.173.051.058.067.232.06.064.078.15.03c.084.045.169.086.256.127l.038.058.177.033.049.066c.527.255 1.024.571 1.5.913.744.588 1.451 1.314 1.732 2.247.001-.037.002-.075.005-.113.191.71.329 1.458.194 2.19-.186 1.156-.73 2.217-1.382 3.172-1.155 1.66-2.651 3.042-4.217 4.3-1.198.961-2.46 1.837-3.74 2.683-.181.12-.361.243-.554.344l-.075.075c-.032.007-.097.02-.129.028l-.045.147c-.72.019-1.44 0-2.16-.003 2.073-1.739 4.196-3.457 5.905-5.576.89-1.093 1.672-2.307 2.091-3.665.275-.927.363-1.938.074-2.872-.286-.887-.846-1.655-1.473-2.329C5.472 1.578 4.105.656 2.63 0z"/>
        <path id="ak" d="M20.116 0h18.128v17.197c-6.612-.003-13.224-.001-19.836 0 2.397-1.771 4.865-3.522 6.773-5.813.78-.952 1.455-2.024 1.736-3.222.188-.797.15-1.64-.118-2.417.007 1.07-.303 2.122-.807 3.067-.559 1.064-1.32 2.015-2.153 2.89-1.83 1.907-4.01 3.449-6.187 4.959-.263.17-.498.382-.777.525-.329.028-.66-.002-.99.014l.048-.148.133-.028.079-.075c.2-.101.386-.224.573-.344 1.329-.846 2.638-1.723 3.882-2.684 1.624-1.259 3.177-2.643 4.374-4.303.678-.955 1.242-2.017 1.434-3.172.14-.734-.002-1.482-.2-2.192-.003.038-.004.076-.005.113-.292-.933-1.026-1.66-1.798-2.248a10.612 10.612 0 0 0-1.556-.913l-.051-.067-.184-.033-.039-.058a5.519 5.519 0 0 1-.266-.127l-.155-.03-.067-.077-.24-.06a7.144 7.144 0 0 0-.061-.067 73.166 73.166 0 0 1-.179-.052c-.289-.142-.597-.244-.896-.363-.204-.08-.425-.13-.595-.272zM8.377.767C8.817.55 9.342.536 9.82.624c.25.045.524.272.422.536-.074.162-.062.337-.048.51.106.157.213.313.318.471l-.208.128c.057.104.055.222.077.335.023.099.097.21.017.304-.185.21-.548.088-.73.294.335.179.618.447.767.787.275.596.38 1.247.612 1.858.653-.201 1.305-.404 1.957-.61a.646.646 0 0 1 .776-.293c.296.096.425.464.286.722-.102.173-.338.23-.532.18a.652.652 0 0 0-.479.09c-.65.362-1.304.716-1.954 1.078-.22.122-.5.204-.745.1-.2-.08-.318-.264-.419-.436-.2-.352-.402-.703-.604-1.054-.185.51-.387 1.013-.571 1.522-.084.18.036.362.182.472.53.414 1.217.614 1.704 1.082.287.283.312.701.338 1.072.067.893.134 1.786.21 2.677l-.237.008.06.23c.321.11.595.312.915.422.13.048.282.041.405.11.105.133-.014.341-.166.391-.379.083-.747-.079-1.12-.106-.324-.027-.643.11-.964.051-.17-.028-.255-.208-.209-.356.054-.218.165-.46-.008-.659l-.154.016c-.064-.25-.14-.498-.18-.753-.105-.544-.072-1.105-.194-1.646-.036-.185-.227-.272-.388-.344-.496-.207-1.052-.274-1.516-.55-.648.708-1.285 1.438-2.07 2.016-.365.274-.782.477-1.208.65-.431.174-.835.4-1.24.623l-.315-.202c-.556.358-1.257.492-1.732.962-.184.158-.3.436-.584.445-.217.03-.317-.22-.284-.387.007-.245.19-.433.378-.58.308-.243.428-.617.598-.948.203-.34.66-.373 1.025-.427v-.235c.285-.15.573-.294.885-.384a.845.845 0 0 0-.179-.29c.209-.063.426-.092.64-.13a2.198 2.198 0 0 0-.286-.211c.253-.108.53-.12.804-.108-.114-.137-.29-.189-.46-.228.235-.148.527-.101.792-.1-.043-.217-.296-.237-.479-.272.257-.118.535-.178.82-.182-.142-.1-.315-.139-.486-.172.181-.205.476-.219.736-.22-.123-.112-.287-.152-.446-.19.208-.163.484-.168.74-.181-.124-.086-.278-.106-.426-.123l.108-.175c-.636-.27-1.31-.51-1.832-.964-.226-.182-.373-.462-.309-.747.14.18.31.341.53.427.836.356 1.674.726 2.567.93.51.118 1.053.076 1.547-.087.404-.156.635-.547.756-.926.095-.343.108-.73-.063-1.053-.29-.333-.748-.457-1.17-.56-.095-.04-.23-.028-.287-.123l.271.043-.002-.164c-.194-.002-.389.014-.582-.004-.095-.016-.12-.129-.176-.187.252-.022.506-.016.76-.016l-.002-.156c-.25-.001-.499-.002-.749.002l-.039-.194c.262-.007.525-.004.787-.006l.005-.153c-.273-.002-.547-.001-.82-.002a11.884 11.884 0 0 1-.037-.247c.283-.001.566-.002.85-.001l.009-.152c-.353-.005-.706.006-1.056-.037-.493.05-.988.031-1.483.032l.086-.216c.817-.012 1.634 0 2.45-.007 0-.039-.003-.117-.004-.155-.785-.003-1.57.005-2.355-.004.237-.368.688-.546 1.127-.565.914-.053 1.828-.116 2.743-.165.009-.095.037-.197-.038-.276-.187-.257-.377-.535-.387-.858-.037-.352.181-.7.51-.856z"/>
        <path id="am" d="M0 .286L.073 0C.441 0 .81 0 1.177.003c-.04.094-.077.188-.115.283-.354 0-.708.002-1.062 0z"/>
        <path id="ao" d="M1.4.023c.245-.045.507-.007.759-.02.133.012.305-.037.403.062.428.353.949.64 1.535.782.34.088.742.105.995.336.255.228.234.571.132.85a1.036 1.036 0 0 1-.592.683c-.42.19-.92.165-1.379.112-1.031-.146-1.992-.51-2.922-.89a.516.516 0 0 1-.268-.732C.31.693.842.31 1.4.023z"/>
        <path id="aq" d="M.66 0c.161.06.34.099.477.204.102.106-.019.24-.073.338C.92.74.814.97.624 1.133.407 1.191.202 1.047 0 .99.22.66.443.332.66 0z"/>
        <path id="as" d="M.51 0l.078.034C.468.184.333.327.195.469A.38.38 0 0 1 0 .573C.145.373.342.192.51 0z"/>
        <path id="au" d="M.406.203C.452.135.498.067.546 0c.211.068.42.14.63.211a23.66 23.66 0 0 0-.142.202L.866.354c-.198.26-.37.535-.573.791-.098.012-.197-.057-.293-.08C.19.796.385.53.573.26L.406.203z"/>
        <path id="aw" d="M.662 0c.16.061.336.1.472.205.09.076.018.187-.03.265C.97.673.846.883.688 1.071c-.05.07-.153.09-.235.066C.296 1.1.149 1.039 0 .986.222.658.44.327.662 0z"/>
        <path id="ay" d="M.296.225C.381.145.443.047.588 0 .563.114.443.205.351.302.251.4.162.509 0 .573.044.442.193.34.296.225z"/>
        <path id="aA" d="M.52.1c.179-.162.515-.119.645.073.056.17-.099.313-.181.452l-.29-.1c.073-.106.145-.214.2-.33C.757.198.709.322.642.404.522.585.374.756.296.958c.146-.03.2-.16.274-.26.099.032.197.066.296.1-.1.132-.195.297-.383.335-.18.047-.43-.03-.483-.205C0 .787.1.67.176.553.288.4.383.235.52.099z"/>
        <path id="aC" d="M13.025.208c.323-.04.628-.175.951-.207h6.029c-.222.655-.45 1.308-.671 1.963-.573-.002-1.146-.025-1.719-.02-.642 1.837-1.298 3.67-1.94 5.506-.875.002-1.748-.004-2.623.003a7.783 7.783 0 0 0-.082-.063 2.26 2.26 0 0 1-.629-.114c-.372-.139-.774-.084-1.162-.1l.024-.087c.397-.027.809.04 1.19-.101.26-.093.531-.138.806-.13l.053-.17a2.175 2.175 0 0 1-.685-.113c-.38-.147-.792-.068-1.187-.11a.203.203 0 0 1 .165-.08c.34-.023.691.038 1.02-.08.283-.101.58-.16.882-.147l.06-.141a2.786 2.786 0 0 1-.719-.145c-.369-.117-.76-.042-1.137-.1.054-.031.11-.07.174-.065.32-.017.645.027.957-.062.296-.078.595-.155.902-.164l.063-.13a6.901 6.901 0 0 1-.721-.153c-.346-.095-.706-.047-1.06-.067L12 5.044c.383-.016.78.036 1.15-.094.25-.095.516-.127.782-.12l.059-.182c-.297-.019-.572-.142-.86-.2-.294-.034-.59-.015-.884-.024l.031-.087c.225-.006.45-.01.675-.007l.008-.07.012.08c.406-.058.789-.229 1.203-.239L14.245 4a1.838 1.838 0 0 1-.542-.128c-.385-.164-.81-.048-1.21-.132.103-.074.237-.052.355-.059.283.003.57.013.84-.085a2.86 2.86 0 0 1 .724-.14l.062-.116c-.325-.043-.614-.243-.946-.242-.25-.012-.5-.008-.747-.041l.07-.066c.379-.045.78.034 1.139-.125.22-.094.456-.13.693-.141l.057-.152c-.255-.024-.492-.12-.736-.19-.316-.052-.641-.003-.957-.066a.295.295 0 0 1 .19-.061c.368-.022.75.021 1.1-.117.207-.09.438-.08.648-.158-.579-.048-1.162-.012-1.742-.048-.262-.079-.515-.201-.791-.228-.269-.024-.54-.003-.808-.034.182-.133.434-.044.644-.08.366.017.696-.16 1.052-.206l.07-.182c-.161-.053-.32-.114-.482-.16-.311-.077-.636-.018-.95-.063L11.91.928c.315-.037.633 0 .947-.041.244-.052.479-.142.724-.185l.07-.2c-.208-.06-.411-.148-.63-.167-.283-.026-.569-.016-.852-.049.052-.032.098-.089.168-.072.23-.009.46.012.689-.006zM3.04.218c.504.05.97-.202 1.469-.217 1.238 0 2.475.003 3.713 0 .502-.004 1.016.039 1.485.234.457.205.911.492 1.18.933.15.307.286.636.292.984.005.932-.253 1.841-.601 2.695-.32.775-.904 1.42-1.596 1.867-.835.51-1.817.732-2.785.732-1.407.015-2.816 0-4.224.007a2.703 2.703 0 0 1-.899-.158C.744 7.187.393 7.27.057 7.214L0 7.15c.397-.049.81.042 1.194-.098.245-.08.496-.146.755-.144l.052-.17a2.306 2.306 0 0 1-.68-.136C.97 6.476.593 6.575.235 6.509l.03-.063c.38-.042.773.037 1.14-.097.253-.088.515-.14.782-.15l.058-.13a4.243 4.243 0 0 1-.641-.145C1.239 5.807.85 5.873.476 5.826c.06-.09.168-.066.257-.073.278-.012.562.027.833-.052.283-.078.569-.15.862-.177l.052-.135c-.223-.042-.444-.09-.663-.145-.336-.09-.685-.05-1.028-.064l.01-.093c.325-.01.654.017.974-.044.288-.087.579-.189.885-.17l.066-.183c-.26-.029-.505-.124-.757-.187-.313-.053-.632-.02-.947-.036l.04-.076c.367-.049.75.034 1.107-.097a3.23 3.23 0 0 1 .738-.15l.06-.104c-.25-.018-.479-.129-.718-.194-.324-.043-.653-.018-.979-.05.023-.015.067-.049.09-.065.352-.032.718.037 1.06-.088.233-.076.473-.134.72-.136l.047-.128c-.262-.053-.502-.18-.765-.23-.292-.028-.585-.021-.878-.045l.03-.08c.383-.04.784.04 1.147-.12.218-.092.452-.128.686-.144.01-.038.033-.114.045-.153-.248-.027-.482-.117-.72-.186-.317-.053-.64-.01-.958-.061l.09-.057c.393-.045.804.022 1.182-.126.19-.077.391-.102.59-.131l.071-.118a4.579 4.579 0 0 1-.584-.157c-.351-.116-.725-.04-1.085-.093.07-.08.177-.068.27-.073.303-.01.616.016.908-.087.216-.078.441-.123.67-.134l.055-.161c-.306-.04-.583-.209-.895-.21-.25-.016-.502 0-.751-.035.19-.118.428-.043.639-.066.414.023.787-.2 1.196-.225l.05-.151c-.218-.044-.426-.122-.64-.18-.324-.052-.656-.024-.981-.072.127-.126.324-.046.483-.066zM21.283.216c.505.047.971-.217 1.474-.216h3.845c.644-.004 1.304.135 1.845.504.315.208.62.472.762.836.106.258.212.525.21.809a6.008 6.008 0 0 1-.295 1.834c-.195.624-.424 1.257-.842 1.766a4.179 4.179 0 0 1-1.979 1.39c-.647.233-1.337.31-2.02.308-1.15.01-2.297.001-3.446.004-.477-.006-.968.042-1.428-.117-.374-.146-.78-.088-1.17-.106a4.64 4.64 0 0 1 .013-.087c.292-.015.586.004.878-.023.341-.07.667-.221 1.022-.211l.057-.168a2.574 2.574 0 0 1-.674-.135c-.361-.123-.746-.043-1.119-.09a.174.174 0 0 1 .15-.079c.324-.024.657.037.972-.067.28-.086.564-.175.86-.163l.05-.14c-.296-.025-.573-.14-.863-.194-.303-.043-.61-.008-.914-.049a5.22 5.22 0 0 1 .094-.058c.34-.039.688.027 1.02-.07.281-.079.566-.142.856-.174l.047-.132a13.586 13.586 0 0 1-.678-.15c-.35-.093-.713-.03-1.068-.072l.084-.068c.362-.05.74.03 1.092-.097a1.86 1.86 0 0 1 .744-.126l.074-.184c-.398-.05-.77-.251-1.18-.22-.179-.029-.408.069-.55-.079.39-.048.793.031 1.17-.1.234-.086.48-.117.725-.151l.082-.099c-.263-.02-.5-.142-.754-.202-.276-.035-.557-.014-.834-.035-.05 0-.093-.031-.133-.058.379-.065.773.028 1.143-.099.243-.079.493-.137.75-.145l.041-.13c-.31-.047-.587-.234-.905-.237-.225-.01-.45-.018-.675-.024l.01-.101c.185-.002.37-.002.555-.006.43.023.8-.27 1.234-.245l.047-.153a2.874 2.874 0 0 1-.619-.159c-.349-.122-.738.015-1.08-.124.264-.059.538-.03.808-.05.377-.004.71-.235 1.091-.218l.042-.132c-.326-.047-.627-.216-.96-.219-.237-.013-.477.01-.71-.041a.352.352 0 0 1 .2-.056c.341-.019.695.019 1.023-.102a2.33 2.33 0 0 1 .642-.126l.05-.158c-.296-.042-.567-.2-.869-.21-.245-.013-.491-.01-.737-.02L20.54.92c.38-.03.773.038 1.14-.088.214-.072.436-.107.655-.154l.069-.142c-.231-.042-.449-.131-.676-.187-.32-.042-.646-.02-.966-.071.147-.116.35-.046.52-.063zm13.532.005c1.238-.133 2.495-.335 3.738-.14.59.094 1.205.303 1.59.78.438.527.506 1.256.425 1.91-.844.005-1.687-.005-2.53.006.01-.237.007-.498-.147-.694-.229-.313-.642-.42-1.016-.417a2.464 2.464 0 0 0-2.062 1.079c-.31.453-.507.972-.652 1.497-.078.334-.161.7-.02 1.03.14.299.472.45.787.488.532.058 1.1-.013 1.562-.294.372-.225.662-.557.915-.903.84.002 1.681-.003 2.522.003-.246.39-.505.773-.806 1.124-.826.945-2.023 1.55-3.273 1.698a9.074 9.074 0 0 1-2.216-.006c-.27-.033-.533-.12-.808-.115-.39 0-.75-.187-1.138-.192-.275-.007-.55-.002-.825-.014a.13.13 0 0 1 .136-.08c.4-.031.814.039 1.203-.083-.121-.095-.225-.21-.345-.304-.133-.015-.268-.008-.4-.02-.351-.025-.671-.216-1.028-.191-.214-.02-.449.042-.649-.053.377-.107.78.013 1.153-.108.198-.06.396-.116.6-.156a9.33 9.33 0 0 1-.08-.148c-.249.008-.494-.04-.73-.114-.39-.132-.806-.075-1.208-.113.113-.125.307-.057.458-.076.463.035.904-.125 1.35-.216l.01-.133c-.287-.013-.564-.086-.84-.153-.352-.091-.717-.026-1.073-.072a.18.18 0 0 1 .153-.073c.358-.022.73.029 1.073-.098.22-.081.452-.115.686-.12l.054-.172c-.319-.004-.62-.114-.925-.187-.323-.052-.652-.02-.977-.037l.035-.085c.416-.014.846.031 1.246-.11.23-.082.474-.09.713-.12l.073-.092a2.972 2.972 0 0 1-.657-.155c-.39-.14-.818-.013-1.215-.122.349-.11.728.008 1.082-.085.318-.084.634-.184.967-.174l.062-.134c-.251-.06-.489-.165-.743-.214-.327-.036-.657-.01-.983-.054l.084-.065c.396-.046.81.033 1.19-.118.24-.095.498-.134.757-.142a12.2 12.2 0 0 1 .102-.158c-.33-.032-.632-.204-.966-.204-.266-.007-.533-.005-.798-.026.034-.03.062-.078.115-.072.413-.034.841.026 1.24-.11.257-.09.528-.131.8-.125l.135-.15c-.287-.065-.57-.168-.867-.173-.282-.008-.564-.008-.846-.016l-.001-.07c.496-.03 1.007.025 1.488-.122.243-.069.495-.097.746-.109.12-.091.241-.182.36-.275-.62-.182-1.275-.085-1.91-.136l.104-.063c.412-.023.826 0 1.238-.018.35-.03.69-.128 1.038-.165.348-.028.64-.238.97-.335-.674-.037-1.35-.02-2.023-.062a.256.256 0 0 1 .202-.068c.531-.006 1.063.007 1.595-.006z"/>
        <path id="aE" d="M1.276 0c.67.02 1.39-.075 2.005.248-.254.064-.504.153-.766.18-.29.024-.583.007-.872.03l-.098.067C1.9.562 2.263.521 2.617.58c.298.089.599.182.913.182l-.003.135a2.12 2.12 0 0 0-.656.144c-.34.144-.714.069-1.07.112l-.082.06c.374.066.77-.017 1.13.12.174.064.35.123.532.149l-.041.12c-.264 0-.52.06-.77.141-.358.123-.744.02-1.109.101.336.125.712-.004 1.053.107.208.072.416.15.638.157l-.075.116a2.289 2.289 0 0 0-.777.128c-.355.12-.733.055-1.1.089l.007.08c.216.001.432-.001.648.003.318.004.608.148.916.202-.06.058-.12.118-.18.179a2.02 2.02 0 0 0-.785.113c-.347.13-.722.055-1.082.1l-.07.068c.42.025.852-.023 1.257.124-.336.12-.697.085-1.046.114-.287.026-.576.014-.865.017C.426 2.293.843 1.144 1.276 0zm18.233.004c.669.007 1.383-.07 2.004.233-.532.229-1.115.207-1.68.219a4.06 4.06 0 0 0-.022.078c.233.003.467.013.7.016.43-.015.817.228 1.25.21l.009.134a2.126 2.126 0 0 0-.609.128c-.361.158-.764.098-1.146.124l-.032.071c.375.058.77-.022 1.13.124.162.061.329.112.5.14l-.027.12c-.258.001-.51.053-.753.135-.361.128-.748.04-1.12.094.077.09.2.058.302.068.28.01.572-.025.838.085.177.072.365.106.553.133l-.09.092c-.242.03-.49.04-.72.127-.329.12-.682.082-1.023.097-.071-.012-.124.026-.164.078.293.022.589-.006.881.03.242.05.474.135.717.184l-.175.18c-.179.004-.361-.01-.535.04-.22.06-.435.147-.666.15-.225.016-.454-.01-.677.026l-.067.061c.418.039.854-.032 1.252.133-.34.119-.703.076-1.055.11-.28.023-.563.015-.845.013.423-1.144.85-2.288 1.27-3.433z"/>
        <path id="aG" d="M4.88 0c.138.003.277.005.415.01-.235.577-.5 1.138-.748 1.708l-.428.002c.249-.576.5-1.15.761-1.72zm1.162.006c.143-.012.287-.003.43-.001-.04.093-.084.186-.126.279a17.06 17.06 0 0 1-.462.002c.049-.094.092-.194.158-.28zm7.04-.005h.45c-.036.089-.065.183-.126.26-.145.047-.31.013-.462.023.046-.094.093-.188.138-.283zM24.286 0c.142 0 .284 0 .425.002-.239.58-.501 1.149-.763 1.718a32.965 32.965 0 0 0-.413 0c.212-.59.503-1.146.751-1.72zM0 1.717C.26 1.145.5.563.777 0c.437.024.887-.052 1.313.083.183.053.301.262.253.459A1.407 1.407 0 0 1 1.12 1.699c-.372.036-.747.014-1.12.018zM20.025 0l.45.003c-.03.427-.057.853-.098 1.278.332-.418.643-.857.97-1.28.141 0 .281 0 .423.008-.424.598-.911 1.13-1.355 1.709l-.396.002A21.467 21.467 0 0 1 20.025 0z"/>
        <path id="aI" d="M.445.01c.236.026.538-.099.718.138.058.256-.079.508-.205.703-.235.327-.631.293-.958.296C.13.758.3.39.445.01z"/>
        <path id="aK" d="M.195.397C.488.06 1.032-.066 1.499.033c.111.029.216.097.256.193.037.15-.038.298-.114.43C1.256.653.87.646.487.656L.484.855c.111.02.223.053.338.036.119-.017.215-.09.334-.105.125-.01.25-.005.375 0-.215.248-.592.331-.934.36-.212.009-.478-.037-.575-.219C-.05.738.07.548.195.397zM4.707.001h.53c-.02.272-.046.544-.074.816.273-.27.549-.539.812-.817.165 0 .33.001.497.006-.41.386-.829.766-1.253 1.14h-.49L4.706 0zm2.422.581C7.39.08 8.185-.15 8.749.106c.14.174.067.385-.048.551-.39 0-.782-.007-1.172.007 0 .071.019.139.055.202a.62.62 0 0 0 .465-.024c.171-.088.375-.055.564-.056-.266.256-.675.373-1.067.36-.162-.014-.354-.049-.44-.181-.08-.118-.042-.266.023-.383z"/>
        <path id="aM" d="M6.321.207c.215-.129.465-.22.74-.205-.058.098-.116.197-.172.296-.236.008-.514.012-.67.18-.169.208-.275.445-.41.667l-.514.002c.213-.374.443-.74.653-1.114.158-.003.315-.003.473-.003l-.1.177zm2.793-.06c.241-.13.539-.201.802-.096.116.054.094.208.055.306-.112.265-.253.517-.36.786a18.37 18.37 0 0 1-.41.003C9.3.85 9.503.594 9.556.282c-.186-.026-.42-.044-.545.127-.152.227-.239.49-.362.733-.137.004-.274.004-.41.005.167-.376.35-.745.523-1.12h.395l-.042.12zm1.19.618c.156-.497.743-.85 1.298-.747.101.008.169.085.246.138.021-.04.043-.078.066-.117.147 0 .294 0 .442.002-.19.388-.393.77-.594 1.152a.85.85 0 0 1-.61.455c-.253.032-.512.116-.765.042-.155-.022-.31-.078-.385-.215l.062-.14c.154 0 .309 0 .464-.003l.085.11c.168 0 .351.027.506-.052.118-.078.183-.203.262-.312-.275.142-.622.204-.918.084-.159-.07-.204-.25-.159-.397zm5.901-.398c.21-.33.682-.396 1.069-.357.14.01.355.036.377.191-.06.318-.376.567-.356.9h-.445a40.594 40.594 0 0 1-.024-.109c-.25.125-.567.218-.84.101-.13-.049-.116-.2-.057-.293.097-.201.349-.282.573-.314.227-.03.459-.041.675-.116l.017-.111c-.17-.053-.368-.06-.512.05-.133.105-.318.054-.477.058zM20.415 0l.386.004c-.098.29-.275.547-.354.845.208.088.484.031.595-.178.116-.22.214-.449.324-.672l.404.004-.526 1.108h-.39l.037-.116c-.249.136-.574.22-.835.073-.099-.097-.033-.238.011-.344.115-.242.229-.484.348-.724zm1.358.788c.106-.647 1.113-1.007 1.732-.645a.531.531 0 0 1-.098.514c-.38-.002-.761-.002-1.142 0-.004.07-.005.14-.005.21.16.026.334.056.485-.016.172-.093.38-.069.573-.063-.28.274-.73.39-1.144.35-.208-.015-.435-.151-.4-.35zM.665.003C.835 0 1.006-.001 1.177 0 .972.388.735.762.518 1.145c-.173 0-.346 0-.518.002C.214.762.445.384.665.003zM7.06 1.146C7.282.763 7.504.38 7.732 0l.505.004c-.22.38-.446.76-.66 1.142H7.06z"/>
        <path id="aO" d="M0 .272C.128.017.383-.08.588.072.576.145.562.216.55.287.366.286.183.29 0 .272zm6.472.002c.12-.187.326-.35.513-.236.085.01.098.169.039.232-.183.033-.368.008-.552.004zm7.65.225c-.012-.314.303-.617.568-.453.117.33-.32.685-.569.453zm10.59-.222c.112-.21.348-.358.537-.229.084.036.037.155.044.237-.194 0-.388.007-.582-.008zm-5.787.495c.16-.1.326-.144.491-.199-.088.428-.344.68-.582.53-.023-.138.02-.285.091-.33z"/>
    </defs>
    <g fill="none" fill-rule="evenodd">
        <path stroke="#EFEDEF" stroke-width="1.005" d="M.503.503h110.562v51.995H.503z"/>
        <g transform="translate(81.961 25.869)">
            <mask id="b" fill="#fff">
                <use xlink:href="#a"/>
            </mask>
            <path fill="#40B93C" d="M-4.674 8.972H8.557V-4.545H-4.674z" mask="url(#b)"/>
        </g>
        <g transform="translate(65.837 19.074)">
            <mask id="d" fill="#fff">
                <use xlink:href="#c"/>
            </mask>
            <path fill="#40B93C" d="M-3.841 15.435h22.947V-4.444H-3.84z" mask="url(#d)"/>
        </g>
        <g transform="translate(57.3 13.25)">
            <mask id="f" fill="#fff">
                <use xlink:href="#e"/>
            </mask>
            <path fill="#40B93C" d="M-3.954 21.26h18.133V-4.47H-3.954z" mask="url(#f)"/>
        </g>
        <g transform="translate(26.948 13.25)">
            <mask id="h" fill="#fff">
                <use xlink:href="#g"/>
            </mask>
            <path fill="#412C91" d="M-4.2 21.841h40.082V-4.471H-4.201z" mask="url(#h)"/>
        </g>
        <g transform="translate(57.3 31.693)">
            <mask id="j" fill="#fff">
                <use xlink:href="#i"/>
            </mask>
            <path fill="#412C91" d="M-4.343 10.922H9.499V-4.716H-4.343z" mask="url(#j)"/>
        </g>
        <g transform="translate(62.991 32.664)">
            <mask id="l" fill="#fff">
                <use xlink:href="#k"/>
            </mask>
            <path fill="#412C91" d="M-4.684 9.857H6.643V-3.958H-4.684z" mask="url(#l)"/>
        </g>
        <g transform="translate(64.888 32.664)">
            <mask id="n" fill="#fff">
                <use xlink:href="#m"/>
            </mask>
            <path fill="#412C91" d="M-4.557 9.95h13.14V-3.957h-13.14z" mask="url(#n)"/>
        </g>
        <g transform="translate(69.63 33.635)">
            <mask id="p" fill="#fff">
                <use xlink:href="#o"/>
            </mask>
            <path fill="#412C91" d="M-4.713 8.98H7.903V-4.832H-4.713z" mask="url(#p)"/>
        </g>
        <g transform="translate(73.425 32.664)">
            <mask id="r" fill="#fff">
                <use xlink:href="#q"/>
            </mask>
            <path fill="#412C91" d="M-4.34 9.857H8.274V-3.958H-4.341z" mask="url(#r)"/>
        </g>
        <g transform="translate(77.219 31.693)">
            <mask id="t" fill="#fff">
                <use xlink:href="#s"/>
            </mask>
            <path fill="#412C91" d="M-4.074 10.922h12.94V-4.62h-12.94z" mask="url(#t)"/>
        </g>
        <g>
            <g transform="translate(187.3 20.06)">
                <mask id="v" fill="#fff">
                    <use xlink:href="#u"/>
                </mask>
                <path fill="#FF5900" d="M-3.605 14.59h22.63V-4.157h-22.63z" mask="url(#v)"/>
            </g>
            <g transform="translate(178.087 14.27)">
                <mask id="x" fill="#fff">
                    <use xlink:href="#w"/>
                </mask>
                <path fill="#FF5900" d="M-3.496 20.308h16.82V-3.794h-16.82z" mask="url(#x)"/>
            </g>
            <g transform="translate(148.143 14.27)">
                <mask id="z" fill="#fff">
                    <use xlink:href="#y"/>
                </mask>
                <path fill="#2A007C" d="M-4.179 21.247h39.443v-25.11H-4.18z" mask="url(#z)"/>
            </g>
            <g transform="translate(178.087 31.642)">
                <mask id="B" fill="#fff">
                    <use xlink:href="#A"/>
                </mask>
                <path fill="#2A007C" d="M-3.845 9.86h12.65V-3.821h-12.65z" mask="url(#B)"/>
            </g>
            <g transform="translate(181.542 33.959)">
                <mask id="D" fill="#fff">
                    <use xlink:href="#C"/>
                </mask>
                <path fill="#2A007C" d="M-3.852 9.19H9.775v-13.5H-3.852z" mask="url(#D)"/>
            </g>
            <g transform="translate(186.149 33.959)">
                <mask id="F" fill="#fff">
                    <use xlink:href="#E"/>
                </mask>
                <path fill="#2A007C" d="M-3.671 9.623h24.916v-13.56H-3.671z" mask="url(#F)"/>
            </g>
            <path stroke="#EFEDEF" stroke-width="1.005" d="M120.503.503h110.562v51.995H120.503z"/>
        </g>
        <g>
            <path fill="#C4161C" d="M279.5 12.23h10.122v3.651h-2.421v-.908h-4.375v3.23h4.375v2.758h-4.375v3.062h4.375v-.908h2.421v3.583h-9.233V14.99h-.888c0-.774.032-1.834 0-2.76zm20.26 4.122v2.288h-2.696v-.824c-6.941-.27-3.18 9.958 1.808 5.198.533.757.84 1.261 1.47 2.372-4.553 3.633-9.767.454-9.832-4.206-.064-4.491 5.037-7.67 9.25-4.828zm27.685 1.144v9.168h-2.454v-6.93c0-2.961-2.631-1.464-2.631.067v6.863h-2.406v-6.847c0-3.128-2.68-1.547-2.68.05v6.814h-3.39v-2.624h.84v-5.871h-.84v-2.742h3.423v.622c2.082-1.211 3.584-.875 4.585.404 1.727-1.766 5.31-1.7 5.553 1.026z"/>
            <path fill="#25247B" d="M287.058 40.77h-3.034v-2.441h.683V30.45h-.667v-2.407h3.018v.425c.73-.344 2.303-.999 3.844-.229 3.97 1.998 2.367 10.089-3.828 9.745-.016.917-.016 1.9-.016 2.784zm-.306-4.615c3.282.23 4.23-3.02 3.22-4.803-.853-1.518-3.22-.318-3.22.971 0 1.254-.032 2.472 0 3.832z"/>
            <path fill="#25247B" d="M301.335 28.078c-.43 1.137-.43 1.137-.91 2.195-1.24-.08-1.753.048-2.2.224-.363.128-1.124.432-1.124 1.826v5.415h-3.127v-2.21h.844v-5.143h-.844V28.11h3.077v.592c1.24-.672 2.531-1.025 4.284-.624zm10.09 5.911h-7.013c1.24 2.403 3.854 2.003 5.095.593.76 1.074.728.993 1.456 2.067-4.913 3.412-10.256-.369-9.016-5.063 1.456-5.543 10.124-4.966 9.479 2.403zm-7.013-2.114h4.731c-.728-2.371-3.937-2.371-4.73 0zm14.94-2.96v1.89h-2.3v-.625c-.38-.4-2.15-.4-2.2.257-.099 1.201 5.807 1.762 4.732 5.687-.679 2.483-5.558 2.163-7.61.513.679-.994.679-.994 1.29-1.859 1.159.497 3.177 1.522 3.623.721.927-1.634-3.986-1.826-4.516-3.957-.976-3.797 4.136-4.582 6.981-2.627zm8 0v1.89h-2.3v-.625c-.38-.4-2.15-.4-2.2.257-.099 1.201 5.807 1.762 4.732 5.687-.679 2.483-5.558 2.163-7.61.513.679-.994.679-.994 1.29-1.859 1.159.497 3.177 1.522 3.623.721.927-1.634-3.986-1.826-4.516-3.957-.976-3.797 4.136-4.582 6.981-2.627z"/>
            <path fill="#C4161C" d="M307.996 14.993c-3.24 0-5.88 2.67-5.88 5.983 0 3.297 2.624 5.984 5.88 5.984 3.239 0 5.88-2.67 5.88-5.984 0-3.296-2.625-5.983-5.88-5.983zm0 9.212c-1.76 0-3.173-1.454-3.173-3.229 0-1.791 1.429-3.228 3.173-3.228s3.172 1.454 3.172 3.228a3.18 3.18 0 0 1-3.172 3.229z"/>
            <path fill="#25247B" d="M273.169 25.12v3.238h-2.162v-.81h-3.922v2.859h3.922v2.445h-3.922v2.71h3.922v-.81h2.162v3.255h-8.246V27.548h-.8c0-.677.032-1.603 0-2.429h9.046z"/>
            <path fill="#C4161C" d="M274.978 27.88v2.38h.836l5.189 7.747h2.116v-2.362h-.648l-5.41-7.764"/>
            <path fill="#25247B" d="M274.978 38.007V35.63h.836l5.189-7.748h2.116v2.362h-.648l-5.41 7.764"/>
            <path stroke="#EFEDEF" stroke-width="1.005" d="M240.503.503h110.562v51.995H240.503z"/>
        </g>
        <g>
            <g transform="translate(389.148 11.212)">
                <mask id="H" fill="#fff">
                    <use xlink:href="#G"/>
                </mask>
                <path fill="#EE3A26" d="M-5.201 36.369h45.687V-4.753H-5.201z" mask="url(#H)"/>
            </g>
            <g transform="translate(393.31 11.212)">
                <mask id="J" fill="#fff">
                    <use xlink:href="#I"/>
                </mask>
                <path fill="#EE3A26" d="M-4.63 33.97h56.656V-5.208H-4.631z" mask="url(#J)"/>
            </g>
            <path stroke="#EFEDEF" stroke-width="1.005" d="M360.503.503h110.562v51.995H360.503z"/>
        </g>
        <g>
            <g transform="translate(496.082 21.744)">
                <mask id="L" fill="#fff">
                    <use xlink:href="#K"/>
                </mask>
                <use fill="#ACB0BD" xlink:href="#K"/>
                <path fill="#0074B8" d="M-2.315 11.891H9.724v-14.27h-12.04z" mask="url(#L)"/>
            </g>
            <g transform="translate(503.49 21.744)">
                <mask id="N" fill="#fff">
                    <use xlink:href="#M"/>
                </mask>
                <path fill="#0074B8" d="M-2.315 11.891H7.872v-14.27H-2.315z" mask="url(#N)"/>
            </g>
            <g transform="translate(509.51 21.744)">
                <mask id="P" fill="#fff">
                    <use xlink:href="#O"/>
                </mask>
                <path fill="#0074B8" d="M-2.315 11.891h12.502v-14.27H-2.315z" mask="url(#P)"/>
            </g>
            <g transform="translate(518.307 21.744)">
                <mask id="R" fill="#fff">
                    <use xlink:href="#Q"/>
                </mask>
                <path fill="#0074B8" d="M-2.315 11.891h10.65v-14.27h-10.65z" mask="url(#R)"/>
            </g>
            <g transform="translate(528.031 21.744)">
                <mask id="T" fill="#fff">
                    <use xlink:href="#S"/>
                </mask>
                <path fill="#00A656" d="M-2.315 11.891H10.65v-14.27H-2.315z" mask="url(#T)"/>
            </g>
            <g transform="translate(536.366 21.744)">
                <mask id="V" fill="#fff">
                    <use xlink:href="#U"/>
                </mask>
                <path fill="#00A656" d="M-2.315 11.891h13.428v-14.27H-2.315z" mask="url(#V)"/>
            </g>
            <g transform="translate(540.07 24.597)">
                <mask id="X" fill="#fff">
                    <use xlink:href="#W"/>
                </mask>
                <path fill="#FFF" d="M-2.315 5.708h6.02v-8.086h-6.02z" mask="url(#X)"/>
            </g>
            <g transform="translate(544.7 21.744)">
                <mask id="Z" fill="#fff">
                    <use xlink:href="#Y"/>
                </mask>
                <path fill="#00A656" d="M-2.315 11.891h12.502v-14.27H-2.315z" mask="url(#Z)"/>
            </g>
            <g transform="translate(552.572 21.744)">
                <mask id="ab" fill="#fff">
                    <use xlink:href="#aa"/>
                </mask>
                <path fill="#00A656" d="M-2.315 11.891H8.798v-14.27H-2.315z" mask="url(#ab)"/>
            </g>
            <g transform="translate(559.98 19.365)">
                <mask id="ad" fill="#fff">
                    <use xlink:href="#ac"/>
                </mask>
                <path fill="#0074B8" d="M-2.315 16.647h18.984V-2.378H-2.315z" mask="url(#ad)"/>
            </g>
            <g transform="translate(559.98 21.268)">
                <mask id="af" fill="#fff">
                    <use xlink:href="#ae"/>
                </mask>
                <path fill="#00A656" d="M-2.315 12.842h9.26v-15.22h-9.26z" mask="url(#af)"/>
            </g>
            <path stroke="#EFEDEF" stroke-width="1.005" d="M480.503.503h110.562v51.995H480.503z"/>
        </g>
        <g>
            <g transform="translate(616.082 17.327)">
                <mask id="ah" fill="#fff">
                    <use xlink:href="#ag"/>
                </mask>
                <path fill="#FCFCFC" d="M-2.942 20.066h84.137V-2.867H-2.942z" mask="url(#ah)"/>
            </g>
            <g transform="translate(669.623 17.327)">
                <mask id="aj" fill="#fff">
                    <use xlink:href="#ai"/>
                </mask>
                <path fill="#D82B23" d="M-2.942 20.066h18.24V-2.867h-18.24z" mask="url(#aj)"/>
            </g>
            <g transform="translate(656.09 17.327)">
                <mask id="al" fill="#fff">
                    <use xlink:href="#ak"/>
                </mask>
                <path fill="#07287F" d="M-2.942 20.066h44.128V-2.867H-2.942z" mask="url(#al)"/>
            </g>
            <g transform="translate(660.21 21.913)">
                <mask id="an" fill="#fff">
                    <use xlink:href="#am"/>
                </mask>
                <path fill="#07287F" d="M-2.942 3.153h7.06v-6.02h-7.06z" mask="url(#an)"/>
            </g>
            <g transform="translate(659.033 21.913)">
                <mask id="ap" fill="#fff">
                    <use xlink:href="#ao"/>
                </mask>
                <path fill="#07287F" d="M-2.942 5.733h11.18v-8.6h-11.18z" mask="url(#ap)"/>
            </g>
            <g transform="translate(659.033 22.487)">
                <mask id="ar" fill="#fff">
                    <use xlink:href="#aq"/>
                </mask>
                <path fill="#FCFCFC" d="M-2.942 4.013h7.06v-6.88h-7.06z" mask="url(#ar)"/>
            </g>
            <g transform="translate(659.621 23.06)">
                <mask id="at" fill="#fff">
                    <use xlink:href="#as"/>
                </mask>
                <path fill="#07287F" d="M-2.942 3.44H3.53v-6.307h-6.472z" mask="url(#at)"/>
            </g>
            <g transform="translate(660.21 23.06)">
                <mask id="av" fill="#fff">
                    <use xlink:href="#au"/>
                </mask>
                <path fill="#FCFCFC" d="M-2.942 4.013h7.06v-6.88h-7.06z" mask="url(#av)"/>
            </g>
            <g transform="translate(660.798 23.06)">
                <mask id="ax" fill="#fff">
                    <use xlink:href="#aw"/>
                </mask>
                <path fill="#FCFCFC" d="M-2.942 4.013h7.06v-6.88h-7.06z" mask="url(#ax)"/>
            </g>
            <g transform="translate(661.386 23.633)">
                <mask id="az" fill="#fff">
                    <use xlink:href="#ay"/>
                </mask>
                <path fill="#07287F" d="M-2.942 3.44H3.53v-6.307h-6.472z" mask="url(#az)"/>
            </g>
            <g transform="translate(661.974 23.633)">
                <mask id="aB" fill="#fff">
                    <use xlink:href="#aA"/>
                </mask>
                <path fill="#FCFCFC" d="M-2.942 4.013h7.06v-6.88h-7.06z" mask="url(#aB)"/>
            </g>
            <g transform="translate(616.082 23.633)">
                <mask id="aD" fill="#fff">
                    <use xlink:href="#aC"/>
                </mask>
                <path fill="#07287F" d="M-2.942 10.32H43.54V-2.867H-2.94z" mask="url(#aD)"/>
            </g>
            <g transform="translate(621.377 25.353)">
                <mask id="aF" fill="#fff">
                    <use xlink:href="#aE"/>
                </mask>
                <path fill="#FCFCFC" d="M-2.942 6.306h27.653v-9.173H-2.942z" mask="url(#aF)"/>
            </g>
            <g transform="translate(639.028 32.233)">
                <mask id="aH" fill="#fff">
                    <use xlink:href="#aG"/>
                </mask>
                <path fill="#D82B23" d="M-2.942 4.587h30.595v-7.454H-2.942z" mask="url(#aH)"/>
            </g>
            <g transform="translate(639.616 32.806)">
                <mask id="aJ" fill="#fff">
                    <use xlink:href="#aI"/>
                </mask>
                <path fill="#FCFCFC" d="M-2.942 4.013h7.06v-6.88h-7.06z" mask="url(#aJ)"/>
            </g>
            <g transform="translate(641.382 32.806)">
                <mask id="aL" fill="#fff">
                    <use xlink:href="#aK"/>
                </mask>
                <path fill="#D82B23" d="M-2.942 4.013h14.71v-6.88h-14.71z" mask="url(#aL)"/>
            </g>
            <g transform="translate(644.323 32.806)">
                <mask id="aN" fill="#fff">
                    <use xlink:href="#aM"/>
                </mask>
                <path fill="#D82B23" d="M-2.942 4.587h29.419v-7.454H-2.942z" mask="url(#aN)"/>
            </g>
            <g transform="translate(641.97 32.806)">
                <mask id="aP" fill="#fff">
                    <use xlink:href="#aO"/>
                </mask>
                <path fill="#FCFCFC" d="M-2.942 4.013h31.184v-6.88H-2.942z" mask="url(#aP)"/>
            </g>
            <path stroke="#EFEDEF" stroke-width="1.005" d="M600.503.503h110.562v51.995H600.503z"/>
        </g>
    </g>
</svg>
